<svg width="72" height="72" viewBox="0 0 72 72" fill="none" xmlns="http://www.w3.org/2000/svg">
<g clip-path="url(#clip0_2745_368)">
<path d="M60.4915 12.983C55.8581 10.8566 50.969 9.33899 45.946 8.46795C45.9005 8.46028 45.8538 8.4669 45.8122 8.48689C45.7706 8.50689 45.7362 8.53927 45.7138 8.57959C45.0841 9.69607 44.3874 11.1564 43.9006 12.2997C38.4862 11.478 32.9788 11.478 27.5643 12.2997C27.0213 11.0261 26.4071 9.78411 25.7244 8.57959C25.7015 8.53971 25.667 8.5077 25.6256 8.48777C25.5841 8.46784 25.5376 8.46093 25.4922 8.46795C20.468 9.33433 15.5778 10.8527 10.9467 12.983C10.9071 12.9981 10.8739 13.0265 10.8529 13.0634C1.59062 26.9032 -0.950484 40.4037 0.295504 53.7344C0.29997 53.7969 0.340163 53.8595 0.389288 53.8996C5.78287 57.8949 11.8157 60.9453 18.2306 62.9208C18.2759 62.9351 18.3246 62.9345 18.3695 62.9193C18.4145 62.904 18.4534 62.8748 18.4807 62.8359C19.8562 60.9602 21.0798 58.9818 22.1338 56.9007C22.1558 56.8579 22.1633 56.8091 22.1552 56.7616C22.1472 56.7141 22.124 56.6705 22.0891 56.6372C22.0661 56.6154 22.0387 56.5987 22.0088 56.5881C20.0847 55.8487 18.2212 54.9602 16.4353 53.9309C16.3854 53.9026 16.3483 53.8563 16.3317 53.8014C16.3151 53.7465 16.3202 53.6874 16.346 53.6362C16.3612 53.6029 16.3842 53.5738 16.413 53.5513C16.7881 53.27 17.1632 52.9752 17.5205 52.6804C17.5521 52.6551 17.5899 52.6388 17.6301 52.6333C17.6702 52.6277 17.711 52.6333 17.7483 52.6492C29.4445 57.9904 42.1053 57.9904 53.6587 52.6492C53.6972 52.6325 53.7396 52.6266 53.7813 52.6321C53.823 52.6376 53.8624 52.6543 53.8953 52.6804C54.2526 52.9752 54.6278 53.27 55.0029 53.5513C55.0333 53.5735 55.0577 53.6029 55.074 53.6369C55.0902 53.6708 55.0978 53.7083 55.096 53.7459C55.0942 53.7835 55.0832 53.8201 55.0638 53.8524C55.0444 53.8847 55.0174 53.9116 54.985 53.9309C53.2032 54.9696 51.3373 55.857 49.4071 56.5837C49.3763 56.5948 49.3484 56.6126 49.3252 56.6357C49.3021 56.6589 49.2843 56.6868 49.2731 56.7176C49.2628 56.7475 49.2587 56.7791 49.261 56.8106C49.2633 56.842 49.272 56.8727 49.2865 56.9007C50.3583 58.9774 51.5865 60.9602 52.9352 62.8359C52.9624 62.8748 53.0014 62.904 53.0463 62.9193C53.0913 62.9345 53.14 62.9351 53.1853 62.9208C59.6109 60.9514 65.6535 57.9007 71.0534 53.8996C71.0804 53.8809 71.1029 53.8563 71.1191 53.8277C71.1354 53.7991 71.1449 53.7672 71.1471 53.7344C72.6388 38.3225 68.6507 24.9338 60.5808 13.0678C60.5727 13.0482 60.5605 13.0306 60.5451 13.0159C60.5298 13.0013 60.5115 12.9901 60.4915 12.983ZM23.88 45.6154C20.3564 45.6154 17.458 42.3821 17.458 38.4163C17.458 34.4461 20.3028 31.2128 23.88 31.2128C27.484 31.2128 30.3555 34.4729 30.3019 38.4163C30.3019 42.3821 27.4572 45.6154 23.88 45.6154ZM47.6207 45.6154C44.1016 45.6154 41.1988 42.3821 41.1988 38.4163C41.1988 34.4461 44.0435 31.2128 47.6207 31.2128C51.2247 31.2128 54.1008 34.4729 54.0427 38.4163C54.0427 42.3821 51.2247 45.6154 47.6207 45.6154Z" fill="#FF0000"/>
</g>
<defs>
<clipPath id="clip0_2745_368">
<rect width="71.4545" height="71.4545" fill="white" transform="translate(0 0.000488281)"/>
</clipPath>
</defs>
</svg>
